<?xml version="1.0" encoding="UTF-8"?>
<svg width="64" height="64" version="1.1" viewBox="0 0 16.933 16.933" xmlns="http://www.w3.org/2000/svg" xmlns:cc="http://creativecommons.org/ns#" xmlns:dc="http://purl.org/dc/elements/1.1/" xmlns:rdf="http://www.w3.org/1999/02/22-rdf-syntax-ns#" xmlns:xlink="http://www.w3.org/1999/xlink">
 <defs>
  <linearGradient id="linearGradient1081" x1="1.3229" x2="15.875" y1="15.875" y2="2.6458" gradientTransform="matrix(3.7796 0 0 3.7796 -.5 -.49993)" gradientUnits="userSpaceOnUse">
   <stop stop-color="#ffbe32" offset="0"/>
   <stop stop-color="#ffdc6e" offset="1"/>
  </linearGradient>
  <linearGradient id="linearGradient944" x1="-59.707" x2="-24.213" y1="-182.27" y2="-182.27" gradientTransform="matrix(.26458 0 0 .26458 45.148 58.379)" gradientUnits="userSpaceOnUse">
   <stop stop-color="#1496ff" offset="0"/>
   <stop stop-color="#0a78ff" offset="1"/>
  </linearGradient>
  <linearGradient id="linearGradient946" x1="-56.875" x2="-56.875" y1="-185.88" y2="-160.88" gradientUnits="userSpaceOnUse">
   <stop stop-color="#0a82ff" offset="0"/>
   <stop stop-color="#0564c8" offset="1"/>
  </linearGradient>
  <linearGradient id="linearGradient948" x1="-27.625" x2="-27.625" y1="-188" y2="-160.75" gradientTransform="matrix(.26458 0 0 .26458 -.74737 0)" gradientUnits="userSpaceOnUse">
   <stop stop-color="#004bb9" offset="0"/>
   <stop stop-color="#0546b4" offset="1"/>
  </linearGradient>
 </defs>
 <metadata>
  <rdf:RDF>
   <cc:Work rdf:about="">
    <dc:format>image/svg+xml</dc:format>
    <dc:type rdf:resource="http://purl.org/dc/dcmitype/StillImage"/>
    <dc:title/>
   </cc:Work>
  </rdf:RDF>
 </metadata>
 <g transform="matrix(.26458 0 0 .26458 -1.1629e-6 -3.941e-6)">
  <path d="m17.5 4.5001c-7.202 0-13 5.798-13 13v5h30v-8l-6.9238-8.6543-0.04687-0.05859a3.5 3.5 0 0 0-0.07031-0.085941 3.5 3.5 0 0 0-0.10547-0.11719 3.5 3.5 0 0 0-0.11133-0.11133 3.5 3.5 0 0 0-0.11719-0.10547 3.5 3.5 0 0 0-0.11914-0.10156 3.5 3.5 0 0 0-0.125-0.0957 3.5 3.5 0 0 0-0.13086-0.089841 3.5 3.5 0 0 0-0.13281-0.083979 3.5 3.5 0 0 0-0.13672-0.07617 3.5 3.5 0 0 0-0.14062-0.07227 3.5 3.5 0 0 0-0.14258-0.06445 3.5 3.5 0 0 0-0.14649-0.058591 3.5 3.5 0 0 0-0.14844-0.052729 3.5 3.5 0 0 0-0.15039-0.044921 3.5 3.5 0 0 0-0.15234-0.039058 3.5 3.5 0 0 0-0.1543-0.031257 3.5 3.5 0 0 0-0.1543-0.025399 3.5 3.5 0 0 0-0.15625-0.017575 3.5 3.5 0 0 0-0.1582-0.00979 3.5 3.5 0 0 0-0.15626-0.00389z" fill="#e1a000"/>
  <path d="m17.5 4.5001c-7.202 0-13 5.798-13 13v29c0 7.202 5.798 13 13 13h29c7.202 0 13-5.798 13-13v-22h-25l2-10-6.9707-8.7129c-0.02298-0.029103-0.04642-0.057677-0.07031-0.085948-0.03428-0.039875-0.06944-0.078918-0.10547-0.11721-0.03628-0.037947-0.07339-0.075063-0.11133-0.11131-0.03826-0.035906-0.07734-0.071208-0.11719-0.10549-0.03895-0.034772-0.07868-0.0686-0.11914-0.10156-0.04095-0.032883-0.08262-0.064745-0.125-0.0957-0.04294-0.030993-0.08657-0.060889-0.13086-0.089841-0.04364-0.029103-0.08792-0.056996-0.13281-0.083983-0.045-0.026457-0.09059-0.051781-0.13672-0.076159-0.04632-0.025323-0.09321-0.049248-0.14062-0.072266-0.04704-0.022678-0.09458-0.044032-0.14258-0.064442-0.04838-0.020788-0.09722-0.040139-0.14649-0.058584-0.04908-0.01852-0.09857-0.036284-0.14844-0.052726-0.04979-0.016252-0.09993-0.030993-0.15039-0.044939-0.05049-0.013985-0.10128-0.027213-0.15235-0.039043-0.05119-0.011717-0.10264-0.021922-0.1543-0.031371-0.05124-0.00945-0.10268-0.018142-0.1543-0.025323-0.05194-0.00718-0.10404-0.012851-0.15625-0.017764-0.05265-0.00454-0.1054-0.00756-0.1582-0.00983-0.05205-0.00242-0.10414-0.00368-0.15625-0.00378z" fill="#e1a000"/>
  <path d="m17.5 4.5c-7.202 0-13 5.798-13 13v0.77734c0-7.202 5.798-13 13-13h9.3203c0.05211 9.99e-5 0.1042 0.00149 0.15625 0.00391 0.0528 0.00227 0.10555 0.00523 0.1582 0.00977 0.05221 0.00491 0.10431 0.010398 0.15625 0.017578 0.05161 0.00718 0.10306 0.015941 0.1543 0.025391 0.05166 0.00945 0.10311 0.019533 0.1543 0.03125 0.05107 0.01183 0.10185 0.025078 0.15234 0.039062 0.05046 0.013946 0.1006 0.02867 0.15039 0.044922 0.04987 0.016442 0.09936 0.034214 0.14844 0.052734 0.04927 0.018445 0.09811 0.037806 0.14648 0.058594 0.048 0.02041 0.09554 0.041775 0.14258 0.064453 0.04741 0.023018 0.09431 0.046943 0.14062 0.072266 0.04613 0.024378 0.09172 0.049715 0.13672 0.076172 0.04489 0.026987 0.08917 0.054881 0.13281 0.083984 0.04429 0.028952 0.08792 0.058851 0.13086 0.089844 0.04238 0.030955 0.08405 0.06282 0.125 0.095703 0.04046 0.032958 0.08019 0.06679 0.11914 0.10156 0.03985 0.034281 0.07893 0.069563 0.11719 0.10547 0.03794 0.036246 0.07505 0.073381 0.11133 0.11133 0.03603 0.038288 0.07119 0.077312 0.10547 0.11719 0.02389 0.028271 0.04733 0.056834 0.07031 0.085938l0.04687 0.058594 6.7988 8.498 0.125-0.62109-6.9238-8.6543-0.04687-0.058594c-0.02298-0.029103-0.04642-0.057666-0.07031-0.085938-0.03428-0.039875-0.06944-0.0789-0.10547-0.11719-0.03628-0.037947-0.07339-0.075082-0.11133-0.11133-0.03826-0.035906-0.07734-0.071188-0.11719-0.10547-0.03895-0.034772-0.07868-0.068605-0.11914-0.10156-0.04095-0.032883-0.08262-0.064748-0.125-0.095703-0.04294-0.030993-0.08657-0.060892-0.13086-0.089844-0.04364-0.029103-0.08792-0.056997-0.13281-0.083984-0.045-0.026457-0.09059-0.051794-0.13672-0.076172-0.04632-0.025323-0.09321-0.049248-0.14062-0.072266-0.04704-0.022678-0.09458-0.044043-0.14258-0.064453-0.04838-0.020788-0.09722-0.040149-0.14648-0.058594-0.04908-0.01852-0.09857-0.036292-0.14844-0.052734-0.04979-0.016252-0.09993-0.030976-0.15039-0.044922-0.05049-0.013985-0.10128-0.027232-0.15234-0.039062-0.05119-0.011717-0.10264-0.021801-0.1543-0.03125-0.05124-0.00945-0.10268-0.01821-0.1543-0.025391-0.05194-0.00718-0.10404-0.012665-0.15625-0.017578-0.05265-0.00454-0.1054-0.0075-0.1582-0.00977-0.05205-0.00242-0.10414-0.00381-0.15625-0.00391h-9.3203zm17.113 20-0.11328 0.55078 25 0.1875v-0.73828h-24.887z" fill="#e1ffff" opacity=".2"/>
  <path d="m35.1 9.5a4.2 4.2 0 0 0-0.17188 0.00391 4.2 4.2 0 0 0-0.18945 0.011719 4.2 4.2 0 0 0-0.1875 0.021484 4.2 4.2 0 0 0-0.18555 0.03125 4.2 4.2 0 0 0-0.18555 0.037109 4.2 4.2 0 0 0-0.18164 0.046875 4.2 4.2 0 0 0-0.18164 0.054687 4.2 4.2 0 0 0-0.17773 0.0625 4.2 4.2 0 0 0-0.17578 0.070313 4.2 4.2 0 0 0-0.16992 0.078125 4.2 4.2 0 0 0-0.16992 0.085937 4.2 4.2 0 0 0-0.16406 0.0918 4.2 4.2 0 0 0-0.1582 0.09961 4.2 4.2 0 0 0-0.1582 0.10938 4.2 4.2 0 0 0-0.15039 0.11328 4.2 4.2 0 0 0-0.14258 0.12305 4.2 4.2 0 0 0-0.14062 0.12695 4.2 4.2 0 0 0-0.13281 0.13281 4.2 4.2 0 0 0-0.12695 0.14062 4.2 4.2 0 0 0-0.08398 0.10352l-0.05664 0.07031-6.709 8.3848h-20.6v27c0 7.202 5.798 13 13 13h29c7.202 0 13-5.798 13-13v-22h-0.0293c-0.31552-8.36-7.1304-15-15.57-15h-8.7852a4.2 4.2 0 0 0-0.01563 0z" fill="url(#linearGradient1081)"/>
  <path d="m35.1 9.5a4.2 4.2 0 0 0-0.17188 0.00391 4.2 4.2 0 0 0-0.18945 0.011719 4.2 4.2 0 0 0-0.1875 0.021484 4.2 4.2 0 0 0-0.18555 0.03125 4.2 4.2 0 0 0-0.18555 0.037109 4.2 4.2 0 0 0-0.18164 0.046875 4.2 4.2 0 0 0-0.18164 0.054687 4.2 4.2 0 0 0-0.17773 0.0625 4.2 4.2 0 0 0-0.17578 0.070313 4.2 4.2 0 0 0-0.16992 0.078125 4.2 4.2 0 0 0-0.16992 0.085937 4.2 4.2 0 0 0-0.16406 0.0918 4.2 4.2 0 0 0-0.1582 0.09961 4.2 4.2 0 0 0-0.1582 0.10938 4.2 4.2 0 0 0-0.15039 0.11328 4.2 4.2 0 0 0-0.14258 0.12305 4.2 4.2 0 0 0-0.14062 0.12695 4.2 4.2 0 0 0-0.13281 0.13281 4.2 4.2 0 0 0-0.12695 0.14062 4.2 4.2 0 0 0-0.08398 0.10352l-0.05664 0.07031-6.709 8.3848h-20.6v0.78906h21.014l6.709-8.3848 0.05664-0.07031c0.02759-0.03481 0.05532-0.0696 0.08398-0.10352 0.04113-0.04782 0.08371-0.09471 0.12695-0.14062 0.04352-0.04551 0.08924-0.08931 0.13477-0.13281 0.04593-0.04324 0.0928-0.08582 0.14062-0.12695 0.04674-0.04169 0.09402-0.08349 0.14258-0.12305 0.04913-0.03939 0.09954-0.07614 0.15039-0.11328 0.05152-0.03712 0.1031-0.07462 0.15625-0.10938 0.05237-0.03477 0.10628-0.06722 0.16016-0.09961 0.054-0.03167 0.10871-0.06258 0.16406-0.0918 0.05559-0.03016 0.11107-0.05831 0.16797-0.08594 0.05645-0.02706 0.11428-0.05362 0.17188-0.07813 0.05806-0.02476 0.11666-0.0482 0.17578-0.07031 0.05889-0.02241 0.1179-0.04277 0.17773-0.0625 0.05975-0.01931 0.11913-0.03805 0.17969-0.05469 0.06058-0.01697 0.12231-0.03263 0.18359-0.04687 0.06142-0.01387 0.12356-0.02603 0.18555-0.03711 0.06148-0.01157 0.12166-0.02244 0.18359-0.03125 0.06233-0.0085 0.12486-0.01585 0.1875-0.02148 0.06319-0.0055 0.12803-0.0091 0.19141-0.01172 0.06245-0.0029 0.12498-0.0038 0.1875-0.0039h8.3691c8.4399 1e-6 15.255 6.64 15.57 15h0.0293v-0.78906h-0.0293c-0.31552-8.36-7.1304-15-15.57-15h-8.7852a4.2 4.2 0 0 0-0.01563 0z" fill="#fff" opacity=".2"/>
  <path d="m4.5 45.83v0.66992c0 7.202 5.798 13 13 13h29c7.202 0 13-5.798 13-13v-0.66992c0 7.202-5.798 13-13 13h-29c-7.202 0-13-5.798-13-13z" opacity=".1"/>
 </g>
 <g transform="matrix(.90902 0 0 .90902 -22.142 1.9286)">
  <path d="m37.995 8.7142c-0.1111-0.14787-0.26255-0.24804-0.44182-0.24804h-7.7597c-0.17958 0-0.3311 0.10078-0.44234 0.24908l2.5161 3.1279h3.6107z" fill="url(#linearGradient944)" stroke-width=".66491"/>
  <g transform="translate(45.148 58.379)">
   <path transform="scale(.26458)" d="m-50.197-175.89-9.5098-11.822c-0.36526 0.48695-0.625 1.1025-0.625 1.8086v23.375c0 0.75939 0.51425 1.375 1.1484 1.375h7.8379c0.63419 0 1.1484-0.61561 1.1484-1.375z" fill="url(#linearGradient946)" stroke-width="2.5131"/>
   <path d="m-13.617-42.819h-2.0112c-0.18512 0-0.33521-0.16289-0.33521-0.36379v0.1819c0 0.2009 0.15009 0.3638 0.33521 0.3638h2.0112c0.18512 0 0.33521-0.16289 0.33521-0.3638v-0.1819c0 0.2009-0.15009 0.36379-0.33521 0.36379z" opacity=".1" stroke-width=".69842"/>
   <path d="m-7.1536-49.664-2.5171 3.1289h0.00103v3.5351c0 0.20092 0.13606 0.3638 0.30384 0.3638h2.0743c0.16779 0 0.30334-0.16288 0.30334-0.3638v-6.1846c0-0.18717-0.068492-0.35062-0.16536-0.47955z" fill="url(#linearGradient948)" stroke-width=".26458"/>
   <path d="m-7.3235-42.819h-2.0112c-0.18512 0-0.33521-0.16289-0.33521-0.36379v0.1819c0 0.2009 0.15009 0.3638 0.33521 0.3638h2.0112c0.18512 0 0.33521-0.16289 0.33521-0.3638v-0.1819c0 0.2009-0.15009 0.36379-0.33521 0.36379z" opacity=".1" stroke-width=".69842"/>
  </g>
 </g>
</svg>
